# xmcd
#
# Track frame offsets: 
#        150
#        27505
#        36845
#        52520
#        72470
#        94295
#        127445
#        145220
#        161045
#        207750
#        219245
#        226425
#        262595
#
# Disc length: 3706 seconds
#
# Revision: 6
# Processed by: cddbd v1.5.2PL0 Copyright (c) Steve Scherf et al.
# Submitted via: ExactAudioCopy v1.0b3
#
DISCID=ba0e780d
DTITLE=Lisa Gerrard - The Silver Tree
DYEAR=2007
DGENRE=New Age
TTITLE0=In Exile
TTITLE1=Shadow Hunter
TTITLE2=Come Tenderness
TTITLE3=The Sea Whisperer
TTITLE4=Mirror Medusa
TTITLE5=Space Weaver
TTITLE6=Abwoon
TTITLE7=Serenity
TTITLE8=Towards The Tower
TTITLE9=Wandering Star
TTITLE10=Sword Of The Samurai
TTITLE11=Devotion
TTITLE12=The Valley Of The Moon
EXTD=YEAR: 2007
EXTT0=
EXTT1=
EXTT2=
EXTT3=
EXTT4=
EXTT5=
EXTT6=
EXTT7=
EXTT8=
EXTT9=
EXTT10=
EXTT11=
EXTT12=
PLAYORDER=
